
<svg xmlns="http://www.w3.org/2000/svg" viewBox="0 0 430 430">
  <defs>
    <style>
      .cls-1 {
        isolation: isolate;
      }

      .cls-2, .cls-4 {
        fill: #ebe6ef;
      }

      .cls-3 {
        fill: #16c72e;
      }

      .cls-4 {
        mix-blend-mode: multiply;
        opacity: 0.5;
      }

      .cls-5 {
        fill: #109121;
      }
    </style>
  </defs>
  <g class="cls-1">
    <g id="Warstwa_1" data-name="Warstwa 1">
      <g>
        <circle class="cls-2" cx="215" cy="215" r="177.12"/>
        <g>
          <path class="cls-3" d="M267.92,105.1a3.49,3.49,0,0,1-2-.62c-46.18-31.81-100.52-2.28-101.07-2a3.5,3.5,0,0,1-3.4-6.12,124.13,124.13,0,0,1,35.23-11.86c27.25-4.94,52.57,0,73.22,14.2a3.5,3.5,0,0,1-2,6.38Z"/>
          <path class="cls-3" d="M316.52,167.74a3.49,3.49,0,0,1-2.94-1.6c-19-29.4-47.09-45.39-83.43-47.53a146.78,146.78,0,0,0-49.67,5.75,3.5,3.5,0,0,1-2.24-6.64,151.45,151.45,0,0,1,52.08-6.11c26.68,1.52,63.79,11.56,89.14,50.73a3.5,3.5,0,0,1-2.94,5.4Z"/>
          <path class="cls-3" d="M273.89,337.86a3.54,3.54,0,0,1-1.93-.58,3.5,3.5,0,0,1-1-4.85c11.43-17.31,24.18-38.16,32.1-61.55,8.05-23.8,9.72-47.13,4.83-67.48-5.57-23.2-20.2-42.78-39.15-52.37-13.33-6.75-30-9.17-46.94-6.83-5.17.72-10.52,1.86-15.69,3-13.59,2.92-27.64,5.94-41.45,2-15.53-4.39-27.62-17.23-31.53-33.51a3.5,3.5,0,1,1,6.8-1.64c3.28,13.61,13.73,24.77,26.64,28.42,12.13,3.43,24.73.72,38.07-2.14,5.3-1.14,10.77-2.31,16.2-3.06,18.6-2.58,36.26,0,51.06,7.51,20.76,10.51,36.76,31.81,42.8,57,5.19,21.64,3.46,46.31-5,71.36-8.17,24.14-21.21,45.48-32.89,63.17A3.49,3.49,0,0,1,273.89,337.86Z"/>
          <path class="cls-3" d="M100.52,208.78a3.5,3.5,0,0,1-.71-6.93l4.12-.84c14.91-3,30.33-6.2,41.72-15.34,3-2.39,6.57-6.15,6.69-10.46.07-2.76-1.29-5.85-4.05-9.18-8.49-10.23-22.78-16.38-32.79-20.11a3.5,3.5,0,0,1,2.44-6.56c10.76,4,26.18,10.68,35.74,22.2,3.88,4.68,5.78,9.33,5.65,13.85-.15,5.53-3.37,11-9.3,15.72-12.71,10.2-29.71,13.67-44.7,16.73l-4.1.85A3.49,3.49,0,0,1,100.52,208.78Z"/>
          <path class="cls-3" d="M114.11,178.5a28.91,28.91,0,0,1-8.09-1.18,3.5,3.5,0,0,1,2-6.72,19.54,19.54,0,0,0,15.65-1.68,3.49,3.49,0,1,1,3.6,6A25.25,25.25,0,0,1,114.11,178.5Z"/>
          <path class="cls-3" d="M228.67,350.94a3.49,3.49,0,0,1-2.61-5.82c44.46-50.21,60.47-83.57,59.05-123.11-1.35-37.72-28.19-56-46.82-56.92-36.26-1.79-54.35,17.25-71.84,35.67-16.77,17.66-34.12,35.92-66.31,32.34a3.5,3.5,0,0,1,.78-7c28.74,3.2,43.43-12.28,60.45-30.2,17.71-18.65,37.79-39.8,77.26-37.84,21.3,1.06,52,21.51,53.48,63.66,1.49,41.58-15,76.27-60.81,128A3.52,3.52,0,0,1,228.67,350.94Z"/>
          <path class="cls-3" d="M185.89,347.09a3.5,3.5,0,0,1-2.38-6.07c22.41-20.79,47.75-45.43,64.7-74.62,6.55-11.27,10.36-20.78,12-29.93,2-11.2.51-22-4.2-30.3a36.34,36.34,0,0,0-32.44-18c-11,.46-20.59,6.05-26.68,10.65-9.44,7.14-16.87,16.26-24.72,25.91-3.34,4.09-6.78,8.32-10.36,12.34-16.36,18.36-35.8,28.65-54.74,29H107a3.5,3.5,0,0,1-.06-7c22.88-.4,40.92-16.86,49.63-26.64,3.48-3.9,6.88-8.07,10.16-12.1,7.77-9.55,15.81-19.42,25.93-27.07,9.88-7.47,20.46-11.64,30.6-12.06a43.47,43.47,0,0,1,38.83,21.58c5.51,9.76,7.29,22.18,5,35-1.78,10-5.86,20.21-12.82,32.21-17.45,30-43.21,55.1-66,76.24A3.47,3.47,0,0,1,185.89,347.09Z"/>
          <path class="cls-3" d="M159.92,338.38a3.5,3.5,0,0,1-2.33-6.11,695.49,695.49,0,0,0,52.8-52.79c12.92-14.33,20.83-27.05,24.9-40,1.71-5.47,2.27-9.79,1.75-13.61-.61-4.48-2.87-8.25-6-10.09-7.91-4.59-18.56,3-22.77,6.5-8.66,7.17-16.46,15.7-24,24-4.48,4.9-9.11,10-13.92,14.75-17.69,17.6-34.74,27.18-52.14,29.3a3.5,3.5,0,0,1-.85-6.95c15.8-1.92,31.51-10.85,48.05-27.31,4.69-4.67,9.27-9.68,13.69-14.51,7.71-8.44,15.68-17.15,24.72-24.63,11.28-9.34,22.49-11.95,30.74-7.17,5,2.92,8.58,8.61,9.48,15.21.66,4.87,0,10.16-2,16.65-4.37,14-12.75,27.49-26.37,42.6a704,704,0,0,1-53.34,53.32A3.45,3.45,0,0,1,159.92,338.38Z"/>
          <path class="cls-3" d="M135.08,316.78a3.5,3.5,0,0,1-1.34-6.73c.59-.25,49.94-21.35,78.16-75.08a3.5,3.5,0,1,1,6.2,3.26c-29.47,56.1-79.56,77.4-81.68,78.28A3.52,3.52,0,0,1,135.08,316.78Z"/>
        </g>
        <path class="cls-4" d="M64.16,215A177.12,177.12,0,0,1,228.73,38.33c-4.15-.29-8.34-.45-12.56-.45a177.12,177.12,0,0,0,0,354.24c4.22,0,8.41-.16,12.56-.45A177.12,177.12,0,0,1,64.16,215Z"/>
        <path class="cls-5" d="M215,395.62c-99.59,0-180.62-81-180.62-180.62S115.41,34.38,215,34.38s180.62,81,180.62,180.62S314.59,395.62,215,395.62Zm0-354.24C119.27,41.38,41.38,119.27,41.38,215S119.27,388.62,215,388.62,388.62,310.73,388.62,215,310.73,41.38,215,41.38Z"/>
      </g>
    </g>
  </g>
</svg>
